<?xml version="1.0" encoding="UTF-8" standalone="no"?>
<svg
   version="1.1"
   width="180"
   height="180"
   viewBox="0 0 180 180"
   xmlns="http://www.w3.org/2000/svg"
>
<path
   style="fill:#464646;fill-rule:nonzero;stroke:#4e934d;stroke-width:0;stroke-linecap:butt;stroke-linejoin:miter;stroke-miterlimit:4;stroke-dasharray:none;stroke-dashoffset:0"
   d="M 15.615234 0 C 6.9910939 -1.1842379e-15 0 6.9911044 0 15.615234 L 0 164.38477 C -1.1842379e-15 173.00891 6.9911039 180 15.615234 180 L 164.38477 180 C 173.00891 180 180 173.0089 180 164.38477 L 180 15.615234 C 180 6.9910944 173.0089 0 164.38477 0 L 15.615234 0 z M 20 17 L 160 17 L 160 43 L 20 43 L 20 17 z M 133.69336 56.953125 C 134.65713 56.964181 135.10611 56.99491 135.1875 57 L 160 57 L 160 83 L 134.84375 83 L 134.6875 82.996094 C 134.6875 82.996094 109.8849 83.955605 100.73047 97.339844 C 81.695211 125.17035 45.511302 123.0437 44.8125 123 L 20 123 L 20 97 L 45.15625 97 L 45.3125 97.003906 C 45.3125 97.003906 70.1151 96.044405 79.269531 82.660156 C 96.08768 58.071177 126.38257 56.869255 133.69336 56.953125 z M 20 137 L 160 137 L 160 163 L 20 163 L 20 137 z " />

</svg>
